HIERARCHY
ROOT Hips
{
	OFFSET 0.000000 0.000000 0.000000 
	CHANNELS 6 Xposition Yposition Zposition Zrotation Yrotation Xrotation
	JOINT LeftUpLeg
	{
		OFFSET 1.363060 -1.794630 0.839290 
		CHANNELS 3 Zrotation Yrotation Xrotation
		JOINT LeftLeg
		{
			OFFSET 2.448110 -6.726130 0.000000 
			CHANNELS 3 Zrotation Yrotation Xrotation
			JOINT LeftFoot
			{
				OFFSET 2.562200 -7.039590 0.000000 
				CHANNELS 3 Zrotation Yrotation Xrotation
				JOINT LeftToeBase
				{
					OFFSET 0.157640 -0.433110 2.322550 
					CHANNELS 3 Zrotation Yrotation Xrotation
					End Site
					{
						OFFSET 0.000000 0.000000 0.000000 
					}
				}
			}
		}
	}
	JOINT RightUpLeg
	{
		OFFSET -1.305520 -1.794630 0.839290 
		CHANNELS 3 Zrotation Yrotation Xrotation
		JOINT RightLeg
		{
			OFFSET -2.542530 -6.985550 0.000000 
			CHANNELS 3 Zrotation Yrotation Xrotation
			JOINT RightFoot
			{
				OFFSET -2.568260 -7.056230 0.000000 
				CHANNELS 3 Zrotation Yrotation Xrotation
				JOINT RightToeBase
				{
					OFFSET -0.164730 -0.452590 2.363150 
					CHANNELS 3 Zrotation Yrotation Xrotation
					End Site
					{
						OFFSET 0.000000 0.000000 0.000000 
					}
				}
			}
		}
	}
	JOINT Spine
	{
		OFFSET 0.028270 2.035590 -0.193380 
		CHANNELS 3 Zrotation Yrotation Xrotation
		JOINT Spine1
		{
			OFFSET 0.056720 2.048850 -0.042750 
			CHANNELS 3 Zrotation Yrotation Xrotation
			JOINT Neck1
			{
				OFFSET -0.054170 1.746240 0.172020 
				CHANNELS 3 Zrotation Yrotation Xrotation
				JOINT Head
				{
					OFFSET 0.104070 1.761360 -0.123970 
					CHANNELS 3 Zrotation Yrotation Xrotation
					End Site
					{
						OFFSET 0.000000 0.000000 0.000000 
					}
				}
			}
			JOINT LeftArm
			{
				OFFSET 3.362410 1.200890 -0.311210 
				CHANNELS 3 Zrotation Yrotation Xrotation
				JOINT LeftForeArm
				{
					OFFSET 4.983000 -0.000000 -0.000000 
					CHANNELS 3 Zrotation Yrotation Xrotation
					JOINT LeftHand
					{
						OFFSET 3.483560 -0.000000 -0.000000 
						CHANNELS 3 Zrotation Yrotation Xrotation
						JOINT LeftHandIndex1
						{
							OFFSET 0.715260 -0.000000 -0.000000 
							CHANNELS 3 Zrotation Yrotation Xrotation
							End Site
							{
								OFFSET 0.000000 0.000000 0.000000 
							}
						}
					}
				}
			}
			JOINT RightArm
			{
				OFFSET -3.136600 1.374050 -0.404650 
				CHANNELS 3 Zrotation Yrotation Xrotation
				JOINT RightForeArm
				{
					OFFSET -5.241900 -0.000000 -0.000000 
					CHANNELS 3 Zrotation Yrotation Xrotation
					JOINT RightHand
					{
						OFFSET -3.444170 -0.000000 -0.000000 
						CHANNELS 3 Zrotation Yrotation Xrotation
						JOINT RightHandIndex1
						{
							OFFSET -0.622530 -0.000000 -0.000000 
							CHANNELS 3 Zrotation Yrotation Xrotation
							End Site
							{
								OFFSET 0.000000 0.000000 0.000000 
							}
						}
					}
				}
			}
		}
	}
}
MOTION
Frames: 13
Frame Time: 0.041667
-0.263705 33.510606 -2.825546 -175.668405 14.451044 -173.197817 -17.961279 2.818209 -19.846783 1.205729 7.783927 26.164586 -4.025846 15.932609 -9.830492 0.238200 -3.140900 -8.671300 21.839079 25.246260 -9.751068 -2.411737 -7.106573 26.724847 3.790671 -13.527474 -2.130872 -0.181800 2.746300 -7.573100 -4.537223 0.485502 6.481924 1.348910 1.038607 -9.551330 29.815751 -0.154084 38.123431 16.785300 1.726700 11.828700 -71.967759 3.316890 34.859961 59.484886 -55.104281 -37.073241 0.494285 -1.117060 -5.426603 -7.125000 0.000000 0.000000 70.815142 15.106747 50.832610 -49.035120 47.703097 -30.764891 0.048161 2.459267 -20.728983 7.125000 0.000000 0.000000 
-0.247964 33.517699 -2.849546 -175.662654 14.630129 -173.240276 -17.912210 2.773892 -19.630315 1.188581 7.751528 26.077302 -4.067360 16.085901 -9.986641 0.227600 -3.070700 -8.475700 21.954202 25.080013 -9.684400 -2.425030 -7.127200 26.767019 3.828567 -13.649000 -1.898234 -0.222300 3.035300 -8.377000 -4.258887 0.372548 6.182413 1.301874 0.980562 -9.489759 30.248721 0.101877 38.274872 17.154700 1.846600 11.728100 -72.079734 3.884301 34.445290 59.291308 -55.054032 -36.907592 0.488719 -1.116020 -5.436129 -7.125000 0.000000 0.000000 70.994430 15.094022 51.411901 -48.682929 47.487357 -30.343364 0.076564 2.492161 -20.606630 7.125000 0.000000 0.000000 
-0.234652 33.524306 -2.873740 -175.669337 14.714867 -173.378922 -17.849216 2.615456 -19.292587 1.181259 7.733545 26.042288 -4.116006 16.276909 -10.203690 0.222400 -3.036000 -8.378900 22.069629 24.892308 -9.513710 -2.432809 -7.143724 26.813115 3.814733 -13.608362 -1.798553 -0.254400 3.245100 -8.962000 -4.112702 0.197428 5.834390 1.246328 0.891131 -9.502745 30.638737 0.396076 38.400028 17.468200 1.994800 11.578100 -72.116508 4.613138 34.051236 59.210070 -55.041308 -36.840174 0.485168 -1.116501 -5.565277 -7.125000 0.000000 0.000000 71.287725 14.987093 52.041543 -48.252199 47.271984 -29.970037 0.098014 2.488679 -20.462070 7.125000 0.000000 0.000000 
-0.218329 33.529456 -2.899391 -175.771543 15.211767 -173.513506 -17.949617 2.730250 -19.054193 1.179484 7.717572 26.025559 -4.183301 16.550290 -10.515001 0.224900 -3.052600 -8.425200 22.036214 24.905153 -9.342937 -2.437085 -7.155582 26.846545 3.732800 -13.344255 -1.518589 -0.263800 3.304100 -9.126500 -4.204796 0.223219 5.699029 1.202994 0.898545 -9.428360 31.052126 0.626537 38.492681 17.798100 2.113000 11.486300 -72.055427 5.117296 33.638141 58.981559 -54.981741 -36.634640 0.479745 -1.117986 -5.723409 -7.125000 0.000000 0.000000 71.706710 14.916477 52.482266 -47.914499 47.112244 -29.742702 0.099985 2.473387 -20.262000 7.125000 0.000000 0.000000 
-0.166734 33.530914 -2.916492 -175.697120 17.485860 -173.773928 -18.110992 4.327295 -19.084748 1.190042 7.707738 26.034633 -4.192427 16.694749 -11.139965 0.201600 -2.891200 -7.976000 22.268377 26.100420 -8.640046 -2.456516 -7.157197 26.909720 3.560165 -12.769686 -0.806310 -0.273500 3.363900 -9.293500 -3.777102 1.087836 6.058278 1.421225 1.353368 -9.333040 31.466347 0.800383 38.600131 18.184700 2.184600 11.480200 -72.042874 5.419680 33.232057 58.782752 -54.925368 -36.459273 0.473862 -1.117340 -5.869036 -7.125000 0.000000 0.000000 72.088215 15.168440 52.791363 -47.488663 46.873820 -29.311528 0.120801 2.479510 -20.019164 7.125000 0.000000 0.000000 
-0.139626 33.536841 -2.942726 -175.631376 18.513228 -173.889587 -18.121681 4.907529 -18.948717 1.185508 7.682928 25.996382 -4.207268 16.818785 -11.556699 0.175400 -2.697800 -7.438400 22.431785 26.589118 -8.309253 -2.481593 -7.183454 27.019286 3.480781 -12.511501 -0.444771 -0.309500 3.576500 -9.888200 -3.407265 1.415064 6.200167 1.395755 1.511240 -9.076982 32.798790 0.734031 38.136233 17.970700 2.362800 11.002800 -72.170119 5.761531 32.790700 58.614599 -54.867919 -36.304151 0.468457 -1.116772 -5.945418 -7.125000 0.000000 0.000000 72.268076 15.398225 53.178942 -47.094409 46.638511 -28.897004 0.144565 2.487273 -19.975112 7.125000 0.000000 0.000000 
-0.124954 33.548209 -2.970807 -175.694933 18.944329 -173.890651 -18.193935 4.924570 -18.796019 1.175206 7.658950 25.955288 -4.247218 17.011275 -11.875876 0.165700 -2.622400 -7.229300 22.363708 26.753767 -8.309714 -2.505467 -7.224802 27.140845 3.418576 -12.318509 -0.171603 -0.343800 3.767600 -10.423700 -3.202198 1.430119 5.979967 1.376242 1.515549 -8.898688 33.231410 0.966382 38.199246 18.284500 2.475700 10.884700 -72.309426 6.273684 32.350617 58.309614 -54.778564 -36.038561 0.463773 -1.114237 -6.073124 -7.125000 0.000000 0.000000 72.391014 15.499308 53.666437 -46.686636 46.421880 -28.528808 0.155089 2.486760 -20.150151 7.125000 0.000000 0.000000 
-0.109504 33.555885 -2.992572 -175.794159 19.175436 -173.932881 -18.245815 4.773877 -18.566367 1.166573 7.637392 25.915886 -4.312746 17.268155 -12.103257 0.173600 -2.683600 -7.399200 22.277249 26.793234 -8.292189 -2.522526 -7.258596 27.236625 3.359353 -12.134907 0.045990 -0.354000 3.822700 -10.578300 -3.194557 1.357086 5.730000 1.330772 1.477338 -8.838733 33.723775 1.159874 38.333054 18.642500 2.583900 10.812400 -72.401627 6.811439 31.950167 58.041264 -54.704318 -35.804856 0.457749 -1.114201 -6.133984 -7.125000 0.000000 0.000000 72.718266 15.757236 54.090076 -46.061512 46.086117 -27.950316 0.177091 2.483317 -20.165289 7.125000 0.000000 0.000000 
-0.095901 33.562492 -3.001317 -175.905548 18.926916 -174.103518 -18.220274 4.362812 -18.191861 1.166948 7.625783 25.897683 -4.406952 17.565374 -12.090745 0.188600 -2.796600 -7.712900 22.236883 26.456045 -8.203774 -2.530633 -7.284285 27.298152 3.329398 -12.047225 0.159599 -0.360600 3.857600 -10.676400 -3.229506 1.044515 5.438194 1.302399 1.325476 -8.995912 34.166446 1.392654 38.515902 18.981000 2.713000 10.733800 -72.432384 7.429274 31.577580 57.797705 -54.646148 -35.598334 0.455229 -1.113740 -6.171627 -7.125000 0.000000 0.000000 73.223365 15.781127 54.574620 -45.579965 45.819143 -27.522514 0.202075 2.485935 -19.887168 7.125000 0.000000 0.000000 
-0.083853 33.573375 -3.004523 -175.974824 18.489977 -174.257444 -18.132098 3.790845 -17.822931 1.175994 7.630312 25.915917 -4.524601 17.910926 -11.964722 0.211500 -2.960900 -8.169900 22.215156 25.997046 -8.131540 -2.527537 -7.292745 27.300594 3.308410 -11.987888 0.311459 -0.378100 3.949200 -10.933900 -3.221336 0.647873 5.172663 1.301286 1.135075 -9.191799 34.498265 1.612590 38.710811 19.254800 2.833300 10.677000 -72.403229 8.035367 31.279332 57.637331 -54.614391 -35.464403 0.449243 -1.115297 -6.295238 -7.125000 0.000000 0.000000 73.661366 15.731414 55.003001 -45.210729 45.622492 -27.226751 0.211167 2.486250 -19.814188 7.125000 0.000000 0.000000 
-0.069958 33.585812 -3.017349 -175.836987 18.384041 -174.253263 -17.920185 3.370639 -17.576006 1.175868 7.629499 25.906275 -4.629415 18.233509 -11.983712 0.231700 -3.098100 -8.552000 22.304375 25.686502 -8.146527 -2.518512 -7.287071 27.272994 3.227442 -11.735393 0.669332 -0.374300 3.929500 -10.878300 -2.830254 0.430654 5.080023 1.237374 1.022304 -9.177501 34.846059 1.828030 38.896191 19.569800 2.935400 10.646800 -72.536348 8.515077 30.967151 57.440255 -54.558535 -35.288060 0.435226 -1.122348 -6.338704 -7.125000 0.000000 0.000000 73.852560 15.966168 55.366453 -44.774160 45.403032 -26.889792 0.179954 2.492805 -19.954828 7.125000 0.000000 0.000000 
-0.057619 33.595528 -3.038336 -175.662904 18.544969 -174.225429 -17.731985 3.167961 -17.365411 1.169133 7.614439 25.860910 -4.716550 18.510875 -12.066320 0.263700 -3.303700 -9.125400 22.407066 25.637565 -8.105968 -2.508979 -7.278069 27.247969 3.092232 -11.307244 1.154265 -0.343200 3.764500 -10.414900 -2.222515 0.385173 5.055387 1.156978 0.989017 -9.032320 35.233959 2.031600 38.962608 19.890600 3.016900 10.565600 -72.798131 8.993960 30.780012 57.153613 -54.466309 -35.033584 0.416718 -1.128549 -6.089140 -7.125000 0.000000 0.000000 73.883554 16.113808 55.727020 -44.502748 45.263408 -26.684909 0.142825 2.510361 -19.859512 7.125000 0.000000 0.000000 
-0.044016 33.605730 -3.062822 -175.869337 18.717173 -174.375411 -17.868962 3.023014 -17.070266 1.160708 7.578374 25.789510 -4.800344 18.796237 -12.149724 0.315300 -3.609500 -9.980700 22.167538 25.601995 -8.037298 -2.498906 -7.281853 27.244486 2.897927 -10.689229 1.767479 -0.330100 3.692600 -10.213400 -2.374993 0.290167 5.052648 1.105276 0.932893 -8.890396 35.762267 2.239436 38.964140 20.249300 3.130200 10.447000 -72.766223 9.559993 30.715105 57.024689 -54.427738 -34.909804 0.390500 -1.137757 -6.077621 -7.125000 0.000000 0.000000 74.225634 16.114981 56.208937 -44.327374 45.126522 -26.500670 0.188480 2.511251 -19.414614 7.125000 0.000000 0.000000 
